<?xml version="1.0" ?><svg id="Icons" viewBox="0 0 24 24" xmlns="http://www.w3.org/2000/svg" xmlns:xlink="http://www.w3.org/1999/xlink"><defs><style>.cls-1{fill:url(#linear-gradient);}.cls-2{fill:#ffc0fe;}</style><linearGradient gradientUnits="userSpaceOnUse" id="linear-gradient" x1="12" x2="12" y1="1.213" y2="22.308"><stop offset="0" stop-color="#ff8af7"/><stop offset="1" stop-color="#f72df2"/></linearGradient></defs><path class="cls-1" d="M20,1H4A3,3,0,0,0,1,4V16a3,3,0,0,0,3,3H7.172l3.414,3.414a2,2,0,0,0,2.828,0L16.828,19H20a3,3,0,0,0,3-3V4A3,3,0,0,0,20,1Z"/><path class="cls-2" d="M18,7H6A1,1,0,0,1,6,5H18a1,1,0,0,1,0,2Z"/><path class="cls-2" d="M18,11H6A1,1,0,0,1,6,9H18a1,1,0,0,1,0,2Z"/><path class="cls-2" d="M18,15H6a1,1,0,0,1,0-2H18a1,1,0,0,1,0,2Z"/></svg>